# xmcd CD database file
#
# Track frame offsets:
#	150
#	23220
#	39652
#	55277
#	73447
#	90810
#	112940
#	132355
#	149705
#	168540
#
# Disc length: 2515 seconds
#
# Revision: 0
# Processed by: cddbd v1.5.1PL0 Copyright (c) Steve Scherf et al.
# Submitted via: CDex 1.51
#
DISCID=9009d10a
DTITLE=ヤドカリ - できちゃった音楽
DYEAR=2004
DGENRE=J-Pop
TTITLE0=愛の唄
TTITLE1=けんか
TTITLE2=ラヴ・ネックレス
TTITLE3=チョッチ
TTITLE4=気になって
TTITLE5=ホリデイ
TTITLE6=アホウドリ
TTITLE7=式場
TTITLE8=トウメイ
TTITLE9=いい顔
EXTD=YEAR: 2004
EXTT0=
EXTT1=
EXTT2=
EXTT3=
EXTT4=
EXTT5=
EXTT6=
EXTT7=
EXTT8=
EXTT9=
PLAYORDER=
